<?xml version="1.0" encoding="utf-8"?>
<svg xmlns="http://www.w3.org/2000/svg" style="margin: auto; display: block; shape-rendering: auto;" width="277" height="108" preserveAspectRatio="xMidYMid">
<style type="text/css">
  text {
    text-anchor: middle; font-size: 63px; opacity: 0;
  }
</style>
<g style="transform-origin: 138.5px 54px; transform: scale(0.7875);">
<g transform="translate(138.5,54)">
  <g transform="translate(0,0)"><g class="path" style="transform: matrix(1, 0, 0, 1, 0, 14.925); opacity: 0.05; transform-origin: -126.64px -7.6814px; animation: 1s linear 0s 1 normal forwards running float-btt-in-ad275b52-4af9-4586-a39c-c835f2d3bf78;"><path d="M42.40 0L42.40-25.52L14.80-25.52L14.80 0L7.20 0L7.20-56L14.80-56L14.80-32.08L42.40-32.08L42.40-56L50-56L50 0L42.40 0" fill="#919dd0" stroke="none" stroke-width="none" transform="translate(-155.23995971679688,20.318597564697267)" style="fill: rgb(145, 157, 208);"></path></g><g class="path" style="transform: matrix(1, 0, 0, 1, 0, 14.925); opacity: 0.05; transform-origin: -88.04px -0.481401px; animation: 1s linear 0.0825s 1 normal forwards running float-btt-in-ad275b52-4af9-4586-a39c-c835f2d3bf78;"><path d="M70.80-41.60L70.80 0L63.60 0L63.60-41.60L70.80-41.60" fill="#919dd0" stroke="none" stroke-width="none" transform="translate(-155.23995971679688,20.318597564697267)" style="fill: rgb(145, 157, 208);"></path></g><g class="path" style="transform: matrix(1, 0, 0, 1, 0, 14.925); opacity: 0.05; transform-origin: -88.04px -33.4414px; animation: 1s linear 0.165s 1 normal forwards running float-btt-in-ad275b52-4af9-4586-a39c-c835f2d3bf78;"><path d="M67.20-48.72L67.20-48.72L67.20-48.72Q65.12-48.72 63.64-50.20L63.64-50.20L63.64-50.20Q62.16-51.68 62.16-53.76L62.16-53.76L62.16-53.76Q62.16-56.08 63.52-57.44L63.52-57.44L63.52-57.44Q64.88-58.80 67.20-58.80L67.20-58.80L67.20-58.80Q69.28-58.80 70.76-57.32L70.76-57.32L70.76-57.32Q72.24-55.84 72.24-53.76L72.24-53.76L72.24-53.76Q72.24-51.44 70.88-50.08L70.88-50.08L70.88-50.08Q69.52-48.72 67.20-48.72" fill="#919dd0" stroke="none" stroke-width="none" transform="translate(-155.23995971679688,20.318597564697267)" style="fill: rgb(145, 157, 208);"></path></g><g class="path" style="transform: matrix(1, 0, 0, 1, 0, 14.925); opacity: 0.05; transform-origin: -14.16px -5.8014px; animation: 1s linear 0.2475s 1 normal forwards running float-btt-in-ad275b52-4af9-4586-a39c-c835f2d3bf78;"><path d="M133.36-40.08L134.88-53.20L140.40-53.20L140.40-40.08L151.92-40.08L151.92-33.84L140.40-33.84L140.40-13.76L140.40-13.76Q140.40-11.44 140.92-9.84L140.92-9.84L140.92-9.84Q141.44-8.24 142.32-7.28L142.32-7.28L142.32-7.28Q143.20-6.32 144.44-5.88L144.44-5.88L144.44-5.88Q145.68-5.44 147.04-5.44L147.04-5.44L147.04-5.44Q149.04-5.44 150.80-6.08L150.80-6.08L150.80-6.08Q152.56-6.72 154.16-7.60L154.16-7.60L156.16-1.84L156.16-1.84Q154.56-0.88 151.84 0.04L151.84 0.04L151.84 0.04Q149.12 0.96 146.16 0.96L146.16 0.96L146.16 0.96Q140.16 0.96 136.68-2.96L136.68-2.96L136.68-2.96Q133.20-6.88 133.20-14.32L133.20-14.32L133.20-33.84L126-33.84L126-40.08L133.36-40.08" fill="#919dd0" stroke="none" stroke-width="none" transform="translate(-155.23995971679688,20.318597564697267)" style="fill: rgb(145, 157, 208);"></path></g><g class="path" style="transform: matrix(1, 0, 0, 1, 0, 14.925); opacity: 0.05; transform-origin: 25.6px -9.2814px; animation: 1s linear 0.33s 1 normal forwards running float-btt-in-ad275b52-4af9-4586-a39c-c835f2d3bf78;"><path d="M170.56-59.20L170.56-34.96L170.56-34.96Q172.80-38.24 176.20-40.40L176.20-40.40L176.20-40.40Q179.60-42.56 184.32-42.56L184.32-42.56L184.32-42.56Q191.36-42.56 194.84-38.32L194.84-38.32L194.84-38.32Q198.32-34.08 198.32-27.12L198.32-27.12L198.32 0L191.12 0L191.12-26.32L191.12-26.32Q191.12-30.88 189.08-33.56L189.08-33.56L189.08-33.56Q187.04-36.24 183.20-36.24L183.20-36.24L183.20-36.24Q181.36-36.24 179.56-35.56L179.56-35.56L179.56-35.56Q177.76-34.88 176.16-33.68L176.16-33.68L176.16-33.68Q174.56-32.48 173.12-30.88L173.12-30.88L173.12-30.88Q171.68-29.28 170.56-27.52L170.56-27.52L170.56 0L163.36 0L163.36-59.20L170.56-59.20" fill="#919dd0" stroke="none" stroke-width="none" transform="translate(-155.23995971679688,20.318597564697267)" style="fill: rgb(145, 157, 208);"></path></g><g class="path" style="transform: matrix(1, 0, 0, 1, 0, 14.925); opacity: 0.05; transform-origin: 71.04px -0.481403px; animation: 1s linear 0.4125s 1 normal forwards running float-btt-in-ad275b52-4af9-4586-a39c-c835f2d3bf78;"><path d="M244.40-17.84L215.28-17.84L215.28-17.84Q216-12 219.36-8.72L219.36-8.72L219.36-8.72Q222.72-5.44 228.24-5.44L228.24-5.44L228.24-5.44Q231.84-5.44 234.72-6.20L234.72-6.20L234.72-6.20Q237.60-6.96 240.24-8.16L240.24-8.16L241.92-2L241.92-2Q239.04-0.64 235.44 0.16L235.44 0.16L235.44 0.16Q231.84 0.96 227.36 0.96L227.36 0.96L227.36 0.96Q222.88 0.96 219.28-0.52L219.28-0.52L219.28-0.52Q215.68-2 213.16-4.76L213.16-4.76L213.16-4.76Q210.64-7.52 209.28-11.56L209.28-11.56L209.28-11.56Q207.92-15.60 207.92-20.80L207.92-20.80L207.92-20.80Q207.92-25.44 209.28-29.44L209.28-29.44L209.28-29.44Q210.64-33.44 213.12-36.36L213.12-36.36L213.12-36.36Q215.60-39.28 219.04-40.92L219.04-40.92L219.04-40.92Q222.48-42.56 226.72-42.56L226.72-42.56L226.72-42.56Q231.20-42.56 234.56-41.04L234.56-41.04L234.56-41.04Q237.92-39.52 240.16-36.88L240.16-36.88L240.16-36.88Q242.40-34.24 243.52-30.72L243.52-30.72L243.52-30.72Q244.64-27.20 244.64-23.28L244.64-23.28L244.64-23.28Q244.64-20.48 244.40-17.84L244.40-17.84zM226.56-36.32L226.56-36.32L226.56-36.32Q221.84-36.32 218.84-33.12L218.84-33.12L218.84-33.12Q215.84-29.92 215.20-23.68L215.20-23.68L238-23.68L238-23.68Q238-29.76 234.96-33.04L234.96-33.04L234.96-33.04Q231.92-36.32 226.56-36.32" fill="#919dd0" stroke="none" stroke-width="none" transform="translate(-155.23995971679688,20.318597564697267)" style="fill: rgb(145, 157, 208);"></path></g><g class="path" style="transform: matrix(1, 0, 0, 1, 0, 14.925); opacity: 0.05; transform-origin: 111.36px -0.961403px; animation: 1s linear 0.495s 1 normal forwards running float-btt-in-ad275b52-4af9-4586-a39c-c835f2d3bf78;"><path d="M278.96-42.08L276.80-34.64L276.80-34.64Q275.28-35.28 273.20-35.28L273.20-35.28L273.20-35.28Q270.96-35.28 268.84-34.32L268.84-34.32L268.84-34.32Q266.72-33.36 265.08-31.44L265.08-31.44L265.08-31.44Q263.44-29.52 262.44-26.52L262.44-26.52L262.44-26.52Q261.44-23.52 261.44-19.44L261.44-19.44L261.44 0L254.24 0L254.24-41.60L261.20-41.60L261.20-32.56L261.20-32.56Q261.92-34.48 263.12-36.32L263.12-36.32L263.12-36.32Q264.32-38.16 265.96-39.52L265.96-39.52L265.96-39.52Q267.60-40.88 269.76-41.72L269.76-41.72L269.76-41.72Q271.92-42.56 274.56-42.56L274.56-42.56L274.56-42.56Q275.76-42.56 276.92-42.44L276.92-42.44L276.92-42.44Q278.08-42.32 278.96-42.08L278.96-42.08" fill="#919dd0" stroke="none" stroke-width="none" transform="translate(-155.23995971679688,20.318597564697267)" style="fill: rgb(145, 157, 208);"></path></g><g class="path" style="transform: matrix(1, 0, 0, 1, 0, 14.925); opacity: 0.05; transform-origin: 144.08px -0.481403px; animation: 1s linear 0.5775s 1 normal forwards running float-btt-in-ad275b52-4af9-4586-a39c-c835f2d3bf78;"><path d="M317.44-17.84L288.32-17.84L288.32-17.84Q289.04-12 292.40-8.72L292.40-8.72L292.40-8.72Q295.76-5.44 301.28-5.44L301.28-5.44L301.28-5.44Q304.88-5.44 307.76-6.20L307.76-6.20L307.76-6.20Q310.64-6.96 313.28-8.16L313.28-8.16L314.96-2L314.96-2Q312.08-0.64 308.48 0.16L308.48 0.16L308.48 0.16Q304.88 0.96 300.40 0.96L300.40 0.96L300.40 0.96Q295.92 0.96 292.32-0.52L292.32-0.52L292.32-0.52Q288.72-2 286.20-4.76L286.20-4.76L286.20-4.76Q283.68-7.52 282.32-11.56L282.32-11.56L282.32-11.56Q280.96-15.60 280.96-20.80L280.96-20.80L280.96-20.80Q280.96-25.44 282.32-29.44L282.32-29.44L282.32-29.44Q283.68-33.44 286.16-36.36L286.16-36.36L286.16-36.36Q288.64-39.28 292.08-40.92L292.08-40.92L292.08-40.92Q295.52-42.56 299.76-42.56L299.76-42.56L299.76-42.56Q304.24-42.56 307.60-41.04L307.60-41.04L307.60-41.04Q310.96-39.52 313.20-36.88L313.20-36.88L313.20-36.88Q315.44-34.24 316.56-30.72L316.56-30.72L316.56-30.72Q317.68-27.20 317.68-23.28L317.68-23.28L317.68-23.28Q317.68-20.48 317.44-17.84L317.44-17.84zM299.60-36.32L299.60-36.32L299.60-36.32Q294.88-36.32 291.88-33.12L291.88-33.12L291.88-33.12Q288.88-29.92 288.24-23.68L288.24-23.68L311.04-23.68L311.04-23.68Q311.04-29.76 308-33.04L308-33.04L308-33.04Q304.96-36.32 299.60-36.32" fill="#919dd0" stroke="none" stroke-width="none" transform="translate(-155.23995971679688,20.318597564697267)" style="fill: rgb(145, 157, 208);"></path></g></g>
</g>
</g>
<style id="float-btt-in-ad275b52-4af9-4586-a39c-c835f2d3bf78" data-anikit="">@keyframes float-btt-in-ad275b52-4af9-4586-a39c-c835f2d3bf78
{
  0% {
    animation-timing-function: cubic-bezier(0.2242,0.7499,0.3142,0.8148);
    transform: translate(0px,14.925px) rotate(0deg) scale(1,1) skewX(0deg) skewY(0deg);
    opacity: 0.05;
  }
  100% {
    transform: translate(0px,0px) rotate(0deg) scale(1,1) skewX(0deg) skewY(0deg);
    opacity: 1;
  }
}</style></svg>