<?xml version="1.0" encoding="utf-8"?><svg xmlns="http://www.w3.org/2000/svg" width="286" height="108" preserveAspectRatio="xMidYMid" xmlns:xlink="http://www.w3.org/1999/xlink" style="margin-right:-2px;display:block;background-repeat-y:initial;background-repeat-x:initial;animation-play-state:paused" ><style type="text/css" style="animation-play-state:paused" >text {
    text-anchor: middle; font-size: 63px; opacity: 0;
  }</style>


<g style="transform-origin:143px 54px;transform:matrix(1, 0, 0, 1, 0, 0);animation-play-state:paused" ><g transform="translate(143,54)" style="transform:matrix(1, 0, 0, 1, 143, 54);animation-play-state:paused" ><g transform="translate(0,0)" style="transform:matrix(1, 0, 0, 1, 0, 0);animation-play-state:paused" ><g class="path" style="transform-origin:-122.22px -5.64806px;animation-timing-function:linear;animation-play-state:paused;animation-name:static-d43aa361-8817-45e6-8540-35b003d59280;animation-iteration-count:infinite;animation-fill-mode:forwards;animation-duration:1s;animation-delay:-0.594s" ><path d="M0.63-38.81L0.63-44.10L33.70-44.10L33.70-38.81L20.16-38.81L20.16 0L14.18 0L14.18-38.81L0.63-38.81" fill="#919dd0" stroke="none" stroke-width="none" transform="translate(-139.385009765625,16.401940185546867)" style="transform:matrix(1, 0, 0, 1, -139.385, 16.4019);fill:rgb(145, 157, 208);animation-play-state:paused" ></path></g>
<g class="path" style="transform-origin:-91.57px 0.0219383px;animation-timing-function:linear;animation-play-state:paused;animation-name:static-d43aa361-8817-45e6-8540-35b003d59280;animation-iteration-count:infinite;animation-fill-mode:forwards;animation-duration:1s;animation-delay:-0.528s" ><path d="M58.34-16.38L58.34-16.38L58.34-16.38Q58.34-18.84 57.55-21.04L57.55-21.04L57.55-21.04Q56.76-23.25 55.35-24.89L55.35-24.89L55.35-24.89Q53.93-26.52 52.01-27.50L52.01-27.50L52.01-27.50Q50.09-28.48 47.82-28.48L47.82-28.48L47.82-28.48Q42.84-28.48 40.07-25.20L40.07-25.20L40.07-25.20Q37.30-21.92 37.30-16.51L37.30-16.51L37.30-16.51Q37.30-14.05 38.08-11.81L38.08-11.81L38.08-11.81Q38.87-9.58 40.29-7.91L40.29-7.91L40.29-7.91Q41.71-6.24 43.63-5.26L43.63-5.26L43.63-5.26Q45.55-4.28 47.82-4.28L47.82-4.28L47.82-4.28Q50.27-4.28 52.23-5.17L52.23-5.17L52.23-5.17Q54.18-6.05 55.53-7.65L55.53-7.65L55.53-7.65Q56.89-9.26 57.61-11.47L57.61-11.47L57.61-11.47Q58.34-13.67 58.34-16.38zM31.50-16.38L31.50-16.38L31.50-16.38Q31.50-20.35 32.76-23.53L32.76-23.53L32.76-23.53Q34.02-26.71 36.19-28.92L36.19-28.92L36.19-28.92Q38.37-31.12 41.36-32.32L41.36-32.32L41.36-32.32Q44.35-33.52 47.82-33.52L47.82-33.52L47.82-33.52Q51.22-33.52 54.21-32.32L54.21-32.32L54.21-32.32Q57.20-31.12 59.41-28.92L59.41-28.92L59.41-28.92Q61.61-26.71 62.87-23.56L62.87-23.56L62.87-23.56Q64.13-20.41 64.13-16.51L64.13-16.51L64.13-16.51Q64.13-12.60 62.91-9.42L62.91-9.42L62.91-9.42Q61.68-6.24 59.47-3.97L59.47-3.97L59.47-3.97Q57.27-1.70 54.27-0.47L54.27-0.47L54.27-0.47Q51.28 0.76 47.82 0.76L47.82 0.76L47.82 0.76Q44.29 0.76 41.30-0.50L41.30-0.50L41.30-0.50Q38.30-1.76 36.13-4.03L36.13-4.03L36.13-4.03Q33.96-6.30 32.73-9.45L32.73-9.45L32.73-9.45Q31.50-12.60 31.50-16.38" fill="#919dd0" stroke="none" stroke-width="none" transform="translate(-139.385009765625,16.401940185546867)" style="transform:matrix(1, 0, 0, 1, -139.385, 16.4019);fill:rgb(145, 157, 208);animation-play-state:paused" ></path></g>
<g class="path" style="transform-origin:-53.895px 0.0219383px;animation-timing-function:linear;animation-play-state:paused;animation-name:static-d43aa361-8817-45e6-8540-35b003d59280;animation-iteration-count:infinite;animation-fill-mode:forwards;animation-duration:1s;animation-delay:-0.462s" ><path d="M96.01-16.38L96.01-16.38L96.01-16.38Q96.01-18.84 95.22-21.04L95.22-21.04L95.22-21.04Q94.44-23.25 93.02-24.89L93.02-24.89L93.02-24.89Q91.60-26.52 89.68-27.50L89.68-27.50L89.68-27.50Q87.76-28.48 85.49-28.48L85.49-28.48L85.49-28.48Q80.51-28.48 77.74-25.20L77.74-25.20L77.74-25.20Q74.97-21.92 74.97-16.51L74.97-16.51L74.97-16.51Q74.97-14.05 75.76-11.81L75.76-11.81L75.76-11.81Q76.55-9.58 77.96-7.91L77.96-7.91L77.96-7.91Q79.38-6.24 81.30-5.26L81.30-5.26L81.30-5.26Q83.22-4.28 85.49-4.28L85.49-4.28L85.49-4.28Q87.95-4.28 89.90-5.17L89.90-5.17L89.90-5.17Q91.85-6.05 93.21-7.65L93.21-7.65L93.21-7.65Q94.56-9.26 95.29-11.47L95.29-11.47L95.29-11.47Q96.01-13.67 96.01-16.38zM69.17-16.38L69.17-16.38L69.17-16.38Q69.17-20.35 70.43-23.53L70.43-23.53L70.43-23.53Q71.69-26.71 73.87-28.92L73.87-28.92L73.87-28.92Q76.04-31.12 79.03-32.32L79.03-32.32L79.03-32.32Q82.03-33.52 85.49-33.52L85.49-33.52L85.49-33.52Q88.89-33.52 91.89-32.32L91.89-32.32L91.89-32.32Q94.88-31.12 97.08-28.92L97.08-28.92L97.08-28.92Q99.29-26.71 100.55-23.56L100.55-23.56L100.55-23.56Q101.81-20.41 101.81-16.51L101.81-16.51L101.81-16.51Q101.81-12.60 100.58-9.42L100.58-9.42L100.58-9.42Q99.35-6.24 97.15-3.97L97.15-3.97L97.15-3.97Q94.94-1.70 91.95-0.47L91.95-0.47L91.95-0.47Q88.96 0.76 85.49 0.76L85.49 0.76L85.49 0.76Q81.96 0.76 78.97-0.50L78.97-0.50L78.97-0.50Q75.98-1.76 73.80-4.03L73.80-4.03L73.80-4.03Q71.63-6.30 70.40-9.45L70.40-9.45L70.40-9.45Q69.17-12.60 69.17-16.38" fill="#919dd0" stroke="none" stroke-width="none" transform="translate(-139.385009765625,16.401940185546867)" style="transform:matrix(1, 0, 0, 1, -139.385, 16.4019);fill:rgb(145, 157, 208);animation-play-state:paused" ></path></g>
<g class="path" style="transform-origin:-21.955px -6.52806px;animation-timing-function:linear;animation-play-state:paused;animation-name:static-d43aa361-8817-45e6-8540-35b003d59280;animation-iteration-count:infinite;animation-fill-mode:forwards;animation-duration:1s;animation-delay:-0.396s" ><path d="M114.72-46.62L114.72-10.84L114.72-10.84Q114.72-7.43 116.14-5.80L116.14-5.80L116.14-5.80Q117.56-4.16 120.08-4.16L120.08-4.16L120.08-4.16Q121.28-4.16 122.41-4.44L122.41-4.44L122.41-4.44Q123.54-4.72 124.43-5.10L124.43-5.10L125.81-0.50L125.81-0.50Q124.68 0 123.01 0.38L123.01 0.38L123.01 0.38Q121.34 0.76 119.32 0.76L119.32 0.76L119.32 0.76Q117.12 0.76 115.26 0.13L115.26 0.13L115.26 0.13Q113.40-0.50 112.01-1.83L112.01-1.83L112.01-1.83Q110.63-3.15 109.84-5.23L109.84-5.23L109.84-5.23Q109.05-7.31 109.05-10.27L109.05-10.27L109.05-46.62L114.72-46.62" fill="#919dd0" stroke="none" stroke-width="none" transform="translate(-139.385009765625,16.401940185546867)" style="transform:matrix(1, 0, 0, 1, -139.385, 16.4019);fill:rgb(145, 157, 208);animation-play-state:paused" ></path></g>
<g class="path" style="transform-origin:1.29499px 0.0219383px;animation-timing-function:linear;animation-play-state:paused;animation-name:static-d43aa361-8817-45e6-8540-35b003d59280;animation-iteration-count:infinite;animation-fill-mode:forwards;animation-duration:1s;animation-delay:-0.33s" ><path d="M152.84-31.56L151.14-26.77L151.14-26.77Q149.31-27.66 147.74-28.07L147.74-28.07L147.74-28.07Q146.16-28.48 144.21-28.48L144.21-28.48L144.21-28.48Q142.00-28.48 140.08-27.66L140.08-27.66L140.08-27.66Q138.16-26.84 136.77-25.29L136.77-25.29L136.77-25.29Q135.39-23.75 134.60-21.55L134.60-21.55L134.60-21.55Q133.81-19.34 133.81-16.51L133.81-16.51L133.81-16.51Q133.81-13.92 134.54-11.72L134.54-11.72L134.54-11.72Q135.26-9.51 136.58-7.84L136.58-7.84L136.58-7.84Q137.91-6.17 139.73-5.23L139.73-5.23L139.73-5.23Q141.56-4.28 143.83-4.28L143.83-4.28L143.83-4.28Q146.22-4.28 147.92-4.79L147.92-4.79L147.92-4.79Q149.63-5.29 151.58-6.36L151.58-6.36L153.34-1.57L153.34-1.57Q151.33-0.50 148.93 0.13L148.93 0.13L148.93 0.13Q146.54 0.76 143.45 0.76L143.45 0.76L143.45 0.76Q139.92 0.76 137.09-0.50L137.09-0.50L137.09-0.50Q134.25-1.76 132.24-4.03L132.24-4.03L132.24-4.03Q130.22-6.30 129.12-9.45L129.12-9.45L129.12-9.45Q128.02-12.60 128.02-16.38L128.02-16.38L128.02-16.38Q128.02-19.91 129.12-23.03L129.12-23.03L129.12-23.03Q130.22-26.14 132.30-28.48L132.30-28.48L132.30-28.48Q134.38-30.81 137.31-32.16L137.31-32.16L137.31-32.16Q140.24-33.52 143.89-33.52L143.89-33.52L143.89-33.52Q146.73-33.52 148.81-33.01L148.81-33.01L148.81-33.01Q150.89-32.51 152.84-31.56L152.84-31.56" fill="#919dd0" stroke="none" stroke-width="none" transform="translate(-139.385009765625,16.401940185546867)" style="transform:matrix(1, 0, 0, 1, -139.385, 16.4019);fill:rgb(145, 157, 208);animation-play-state:paused" ></path></g>
<g class="path" style="transform-origin:34.34px -6.90806px;animation-timing-function:linear;animation-play-state:paused;animation-name:static-d43aa361-8817-45e6-8540-35b003d59280;animation-iteration-count:infinite;animation-fill-mode:forwards;animation-duration:1s;animation-delay:-0.264s" ><path d="M165.63-46.62L165.63-27.53L165.63-27.53Q167.39-30.11 170.07-31.82L170.07-31.82L170.07-31.82Q172.75-33.52 176.46-33.52L176.46-33.52L176.46-33.52Q182.01-33.52 184.75-30.18L184.75-30.18L184.75-30.18Q187.49-26.84 187.49-21.36L187.49-21.36L187.49 0L181.82 0L181.82-20.73L181.82-20.73Q181.82-24.32 180.21-26.43L180.21-26.43L180.21-26.43Q178.60-28.54 175.58-28.54L175.58-28.54L175.58-28.54Q174.13-28.54 172.71-28.00L172.71-28.00L172.71-28.00Q171.30-27.47 170.04-26.52L170.04-26.52L170.04-26.52Q168.78-25.58 167.64-24.32L167.64-24.32L167.64-24.32Q166.51-23.06 165.63-21.67L165.63-21.67L165.63 0L159.96 0L159.96-46.62L165.63-46.62" fill="#919dd0" stroke="none" stroke-width="none" transform="translate(-139.385009765625,16.401940185546867)" style="transform:matrix(1, 0, 0, 1, -139.385, 16.4019);fill:rgb(145, 157, 208);animation-play-state:paused" ></path></g>
<g class="path" style="transform-origin:72.42px 0.0219383px;animation-timing-function:linear;animation-play-state:paused;animation-name:static-d43aa361-8817-45e6-8540-35b003d59280;animation-iteration-count:infinite;animation-fill-mode:forwards;animation-duration:1s;animation-delay:-0.198s" ><path d="M195.05-16.19L195.05-16.19L195.05-16.19Q195.05-19.84 196.18-23.03L196.18-23.03L196.18-23.03Q197.32-26.21 199.36-28.54L199.36-28.54L199.36-28.54Q201.41-30.87 204.28-32.19L204.28-32.19L204.28-32.19Q207.14-33.52 210.55-33.52L210.55-33.52L210.55-33.52Q213.38-33.52 215.68-32.54L215.68-32.54L215.68-32.54Q217.98-31.56 219.68-30.11L219.68-30.11L219.68-32.76L224.85-32.76L224.85-7.94L224.85-7.94Q224.85-5.54 226.01-4.82L226.01-4.82L226.01-4.82Q227.18-4.09 228.56-4.09L228.56-4.09L227.37 0.32L227.37 0.32Q221.32 0.32 220.06-4.60L220.06-4.60L220.06-4.60Q219.30-3.59 218.33-2.61L218.33-2.61L218.33-2.61Q217.35-1.64 216.09-0.88L216.09-0.88L216.09-0.88Q214.83-0.13 213.25 0.32L213.25 0.32L213.25 0.32Q211.68 0.76 209.79 0.76L209.79 0.76L209.79 0.76Q206.70 0.76 204.03-0.44L204.03-0.44L204.03-0.44Q201.35-1.64 199.36-3.84L199.36-3.84L199.36-3.84Q197.38-6.05 196.21-9.17L196.21-9.17L196.21-9.17Q195.05-12.29 195.05-16.19zM211.05-4.28L211.05-4.28L211.05-4.28Q213.44-4.28 215.59-5.42L215.59-5.42L215.59-5.42Q217.73-6.55 219.18-8.38L219.18-8.38L219.18-25.96L219.18-25.96Q217.48-27.15 215.43-27.88L215.43-27.88L215.43-27.88Q213.38-28.60 211.11-28.60L211.11-28.60L211.11-28.60Q208.84-28.60 206.95-27.72L206.95-27.72L206.95-27.72Q205.06-26.84 203.71-25.23L203.71-25.23L203.71-25.23Q202.36-23.63 201.60-21.36L201.60-21.36L201.60-21.36Q200.84-19.09 200.84-16.38L200.84-16.38L200.84-16.38Q200.84-13.73 201.60-11.50L201.60-11.50L201.60-11.50Q202.36-9.26 203.74-7.65L203.74-7.65L203.74-7.65Q205.13-6.05 206.99-5.17L206.99-5.17L206.99-5.17Q208.84-4.28 211.05-4.28" fill="#919dd0" stroke="none" stroke-width="none" transform="translate(-139.385009765625,16.401940185546867)" style="transform:matrix(1, 0, 0, 1, -139.385, 16.4019);fill:rgb(145, 157, 208);animation-play-state:paused" ></path></g>
<g class="path" style="transform-origin:99.57px 0.0219402px;animation-timing-function:linear;animation-play-state:paused;animation-name:static-d43aa361-8817-45e6-8540-35b003d59280;animation-iteration-count:infinite;animation-fill-mode:forwards;animation-duration:1s;animation-delay:-0.132s" ><path d="M241.79-32.76L241.79 0L236.12 0L236.12-32.76L241.79-32.76" fill="#919dd0" stroke="none" stroke-width="none" transform="translate(-139.385009765625,16.401940185546867)" style="transform:matrix(1, 0, 0, 1, -139.385, 16.4019);fill:rgb(145, 157, 208);animation-play-state:paused" ></path></g>
<g class="path" style="transform-origin:99.575px -25.9331px;animation-timing-function:linear;animation-play-state:paused;animation-name:static-d43aa361-8817-45e6-8540-35b003d59280;animation-iteration-count:infinite;animation-fill-mode:forwards;animation-duration:1s;animation-delay:-0.066s" ><path d="M238.96-38.37L238.96-38.37L238.96-38.37Q237.32-38.37 236.16-39.53L236.16-39.53L236.16-39.53Q234.99-40.70 234.99-42.34L234.99-42.34L234.99-42.34Q234.99-44.16 236.06-45.23L236.06-45.23L236.06-45.23Q237.13-46.30 238.96-46.30L238.96-46.30L238.96-46.30Q240.60-46.30 241.76-45.14L241.76-45.14L241.76-45.14Q242.93-43.97 242.93-42.34L242.93-42.34L242.93-42.34Q242.93-40.51 241.86-39.44L241.86-39.44L241.86-39.44Q240.79-38.37 238.96-38.37" fill="#919dd0" stroke="none" stroke-width="none" transform="translate(-139.385009765625,16.401940185546867)" style="transform:matrix(1, 0, 0, 1, -139.385, 16.4019);fill:rgb(145, 157, 208);animation-play-state:paused" ></path></g>
<g class="path" style="transform-origin:126.25px -0.358061px;animation-timing-function:linear;animation-play-state:paused;animation-name:static-d43aa361-8817-45e6-8540-35b003d59280;animation-iteration-count:infinite;animation-fill-mode:forwards;animation-duration:1s" ><path d="M257.36-32.76L257.36-27.28L257.36-27.28Q259.12-29.93 261.86-31.72L261.86-31.72L261.86-31.72Q264.60-33.52 268.38-33.52L268.38-33.52L268.38-33.52Q273.92-33.52 276.66-30.18L276.66-30.18L276.66-30.18Q279.40-26.84 279.40-21.36L279.40-21.36L279.40 0L273.74 0L273.74-20.73L273.74-20.73Q273.74-24.32 272.10-26.43L272.10-26.43L272.10-26.43Q270.46-28.54 267.44-28.54L267.44-28.54L267.44-28.54Q265.99-28.54 264.60-28.00L264.60-28.00L264.60-28.00Q263.21-27.47 261.92-26.52L261.92-26.52L261.92-26.52Q260.63-25.58 259.53-24.32L259.53-24.32L259.53-24.32Q258.43-23.06 257.54-21.67L257.54-21.67L257.54 0L251.87 0L251.87-32.76L257.36-32.76" fill="#919dd0" stroke="none" stroke-width="none" transform="translate(-139.385009765625,16.401940185546867)" style="transform:matrix(1, 0, 0, 1, -139.385, 16.4019);fill:rgb(145, 157, 208);animation-play-state:paused" ></path></g></g></g></g></svg>